<?xml version="1.0" encoding="UTF-8"?>
<!DOCTYPE svg PUBLIC "-//W3C//DTD SVG 1.1//EN" "http://www.w3.org/Graphics/SVG/1.1/DTD/svg11.dtd">
<svg xmlns="http://www.w3.org/2000/svg" version="1.1" width="500px" height="500px" style="shape-rendering:geometricPrecision; text-rendering:geometricPrecision; image-rendering:optimizeQuality; fill-rule:evenodd; clip-rule:evenodd" xmlns:xlink="http://www.w3.org/1999/xlink">
<g><path style="opacity:1" fill="#fefefe" d="M -0.5,-0.5 C 166.167,-0.5 332.833,-0.5 499.5,-0.5C 499.5,166.167 499.5,332.833 499.5,499.5C 332.833,499.5 166.167,499.5 -0.5,499.5C -0.5,332.833 -0.5,166.167 -0.5,-0.5 Z"/></g>
<g><path style="opacity:1" fill="#a0d912" d="M 308.5,266.5 C 302.93,275.299 297.596,284.299 292.5,293.5C 287.917,300.997 283.584,308.663 279.5,316.5C 268.763,334.971 257.763,353.305 246.5,371.5C 235.237,353.305 224.237,334.971 213.5,316.5C 209.559,308.572 205.226,300.905 200.5,293.5C 195.99,284.471 190.99,275.804 185.5,267.5C 171.598,242.698 157.431,218.031 143,193.5C 129.17,167.358 124.836,139.691 130,110.5C 143.999,57.8356 177.832,26.6689 231.5,17C 281.554,13.2799 320.388,32.1132 348,73.5C 370.82,113.969 371.154,154.635 349,195.5C 334.97,218.896 321.47,242.563 308.5,266.5 Z"/></g>
<g><path style="opacity:1" fill="#fefefe" d="M 238.5,95.5 C 269.043,94.5494 284.877,109.216 286,139.5C 280.105,165.369 263.938,176.869 237.5,174C 214.296,166.11 204.463,149.943 208,125.5C 212.753,109.913 222.92,99.9127 238.5,95.5 Z"/></g>
<g><path style="opacity:1" fill="#eef1e5" d="M 308.5,266.5 C 333.435,271.392 358.102,277.892 382.5,286C 407.843,295.37 430.009,309.537 449,328.5C 475.679,362.781 473.179,394.948 441.5,425C 427.149,437.516 411.149,447.516 393.5,455C 347.427,473.737 299.427,482.903 249.5,482.5C 200.369,482.839 153.036,474.006 107.5,456C 89.1889,448.185 72.5222,437.852 57.5,425C 21.9717,388.414 22.9717,352.748 60.5,318C 85.3238,298.755 112.99,285.089 143.5,277C 157.639,273.795 171.639,270.628 185.5,267.5C 190.99,275.804 195.99,284.471 200.5,293.5C 166.886,296.868 136.22,308.035 108.5,327C 72.8593,356.927 72.526,387.26 107.5,418C 132.009,434.843 159.009,445.843 188.5,451C 245.259,460.993 300.593,455.993 354.5,436C 374.502,427.982 391.002,415.482 404,398.5C 415.097,378.556 413.763,359.556 400,341.5C 384.708,324.764 366.208,312.93 344.5,306C 327.597,299.941 310.264,295.774 292.5,293.5C 297.596,284.299 302.93,275.299 308.5,266.5 Z"/></g>
<g><path style="opacity:1" fill="#dbded1" d="M 200.5,293.5 C 205.226,300.905 209.559,308.572 213.5,316.5C 190.741,319.477 169.741,327.31 150.5,340C 126.246,358.329 124.246,378.662 144.5,401C 161.582,414.538 180.915,423.205 202.5,427C 238.553,433.029 274.219,431.362 309.5,422C 326.601,416.87 341.434,408.037 354,395.5C 367.625,375.193 364.791,357.359 345.5,342C 337.274,335.718 328.274,330.718 318.5,327C 305.598,322.693 292.598,319.193 279.5,316.5C 283.584,308.663 287.917,300.997 292.5,293.5C 310.264,295.774 327.597,299.941 344.5,306C 366.208,312.93 384.708,324.764 400,341.5C 413.763,359.556 415.097,378.556 404,398.5C 391.002,415.482 374.502,427.982 354.5,436C 300.593,455.993 245.259,460.993 188.5,451C 159.009,445.843 132.009,434.843 107.5,418C 72.526,387.26 72.8593,356.927 108.5,327C 136.22,308.035 166.886,296.868 200.5,293.5 Z"/></g>
<g><path style="opacity:1" fill="#d2d9c0" d="M 213.5,316.5 C 224.237,334.971 235.237,353.305 246.5,371.5C 257.763,353.305 268.763,334.971 279.5,316.5C 292.598,319.193 305.598,322.693 318.5,327C 328.274,330.718 337.274,335.718 345.5,342C 364.791,357.359 367.625,375.193 354,395.5C 341.434,408.037 326.601,416.87 309.5,422C 274.219,431.362 238.553,433.029 202.5,427C 180.915,423.205 161.582,414.538 144.5,401C 124.246,378.662 126.246,358.329 150.5,340C 169.741,327.31 190.741,319.477 213.5,316.5 Z"/></g>
</svg>
